<svg id="visual" viewBox="0 0 960 100" width="960" height="100" xmlns="http://www.w3.org/2000/svg" xmlns:xlink="http://www.w3.org/1999/xlink" version="1.1"><rect x="0" y="0" width="960" height="100" fill="#fff"></rect><path d="M0 70L40 72C80 74 160 78 240 69.3C320 60.7 400 39.3 480 28.7C560 18 640 18 720 26.2C800 34.3 880 50.7 920 58.8L960 67L960 0L920 0C880 0 800 0 720 0C640 0 560 0 480 0C400 0 320 0 240 0C160 0 80 0 40 0L0 0Z" fill="#FF9999" stroke-linecap="round" stroke-linejoin="miter"></path></svg>